# xmcd
#
# Track frame offsets:
#	150
#	11994
#	27649
#	44420
#	61182
#	78153
#	97530
#	113877
#	128441
#	149599
#	167741
#	181033
#	200707
#
# Disc length: 2849 seconds
#
# Revision: 0
# Processed by: cddbd v1.5.2PL0 Copyright (c) Steve Scherf et al.
# Submitted via: EasyCDDAExtractor 12.0.7.1
#
DISCID=a80b1f0d
DTITLE=Brixton Boogie - Urban Blues
DYEAR=2009
DGENRE=Blues
TTITLE0=Grinnin' In Ya Face
TTITLE1=Bobdy But You
TTITLE2=By Myself
TTITLE3=If I
TTITLE4=Left Hand Blues (Dub)
TTITLE5=Hobo Travellin'
TTITLE6=Beautiful City
TTITLE7=The Way You Treat Love
TTITLE8=Love Will Do
TTITLE9=Policy Of Truth
TTITLE10=Fisherman's Chant
TTITLE11=Hey Hey
TTITLE12=Coming Home
EXTD=
EXTT0=
EXTT1=
EXTT2=
EXTT3=
EXTT4=
EXTT5=
EXTT6=
EXTT7=
EXTT8=
EXTT9=
EXTT10=
EXTT11=
EXTT12=
PLAYORDER=
